<svg xmlns="http://www.w3.org/2000/svg" viewBox="0 0 711.994 107.86" fill="#fff"><path d="M29.687 29.565C17.536 29.565 6.1 40.315 6.1 53.224v.223c0 13.888 11.325 24.088 24.781 24.088a31.628 31.628 0 0 0 16.611-4.557V62.122H29.8V47.691h30.265V25.718L49.55 37.278c-5.863-4.888-11.068-7.713-19.863-7.713M30.337 92.726C18.173 92.726 7.506 88.332 0 81.019v17.533a53.275 53.275 0 0 0 60.065.073V82.84a48.947 48.947 0 0 1-29.728 9.885M0 26.522V9.309a53.294 53.294 0 0 1 60.065-.081v16.49C52.147 18.993 43.9 14.176 30.231 14.176A42.6 42.6 0 0 0 0 26.522"/></svg>